<svg xmlns="http://www.w3.org/2000/svg" xmlns:xlink="http://www.w3.org/1999/xlink" version="1.1" x="0px" y="0px" viewBox="0 0 100 125" enable-background="new 0 0 100 100" xml:space="preserve"><path d="M35.157,22.726c-0.037,5.033-0.486,10.062,0.138,15.077c0.393,3.156,5.397,3.194,5,0  c-0.624-5.014-0.175-10.044-0.138-15.077C40.181,19.501,35.181,19.503,35.157,22.726L35.157,22.726z"/><path d="M53.138,20.651c0.425,5.613-0.864,11.134-0.968,16.735c-0.06,3.226,4.94,3.22,5,0c0.104-5.601,1.393-11.123,0.968-16.735  C57.896,17.457,52.894,17.434,53.138,20.651L53.138,20.651z"/><path d="M16.606,52.99c3.37,13.23,15.925,19.542,28.775,19.452c13.715-0.096,24.708-6.888,29.574-19.867  c1.134-3.026-3.701-4.32-4.822-1.33c-4.144,11.056-13.385,15.851-24.752,16.197c-10.619,0.324-21.172-4.859-23.954-15.782  C20.632,48.538,15.81,49.863,16.606,52.99L16.606,52.99z"/><text x="0" y="115" fill="#000000" font-size="5px" font-weight="bold" font-family="'Helvetica Neue', Helvetica, Arial-Unicode, Arial, Sans-serif">Created by Gijs Vos</text><text x="0" y="120" fill="#000000" font-size="5px" font-weight="bold" font-family="'Helvetica Neue', Helvetica, Arial-Unicode, Arial, Sans-serif">from the Noun Project</text></svg>